# xmcd
#
# Track frame offsets:
#	150
#	13213
#	26652
#	41720
#	56802
#	69579
#	92301
#	104811
#	123628
#	135983
#	149368
#	162338
#	177948
#	195098
#	216674
#
# Disc length: 3188 seconds
#
# Revision: 1
# Processed by: cddbd v1.4PL0 Copyright (c) Steve Scherf et al.
# Submitted via: audiograbber 1.81.02
#
DISCID=de0c720f
DTITLE=Various Artist - New Standards for Flatpicking Guitar
DYEAR=1900
DGENRE=
TTITLE0=Delaware Tan - David Grier and Tim Stafford
TTITLE1=Upside Down and Backwards - Jeff White and Jim Hurst
TTITLE2=Jibaro Hoedown - Eric Thompson and Jim Nunally
TTITLE3=Song For Emily - Kenny Smith and David Grier
TTITLE4=Chestnut Flats - Tim Stafford and James Shelton
TTITLE5=Zöbern - Jim Hurst and Curtis Jones
TTITLE6=Brittlebush - Peter McLaughlin and Scott Nygaard
TTITLE7=Mt. Dora Waltz - Jeff White and Bryan Sutton
TTITLE8=North Fork of the Holston - James Shelton and Curtis Jones
TTITLE9=Winslow - Scott Nygaard and Eric Thompson
TTITLE10=Jordan's Reel - Wyatt Rice and Kenny Smith
TTITLE11=Wit's End - Chris Jones and Brad Davis
TTITLE12=Gloria's Waltz - Jim Nunally and Peter McLaughlin
TTITLE13=Velvet Hammer - Brad Davis and Wyatt Rice
TTITLE14=Django and Al - Curtis Jones and Bryan Sutton
EXTD=
EXTT0=
EXTT1=
EXTT2=
EXTT3=
EXTT4=
EXTT5=
EXTT6=
EXTT7=
EXTT8=
EXTT9=
EXTT10=
EXTT11=
EXTT12=
EXTT13=
EXTT14=
PLAYORDER=
